<?xml version="1.0" encoding="UTF-8"?>
<svg version="1.1" viewBox="0 0 800 800" width="1280" height="1280" xmlns="http://www.w3.org/2000/svg">
<path transform="translate(0)" d="m0 0h800v800h-800z" fill="#FBFCFC"/>
<path transform="translate(569,323)" d="m0 0 51 1 13 4 10 9 5 7 4 11 1 4v25l-4 13-6 9-8 8-4 2 1 5 12 25 12 26 1 3h2l1-8 16-63 19-74 2-6 29-1 3 3 6 21 24 95 9 36v5h-31l-2-6-4-21-37 1-6 25-1 1h-61l-4-8-12-28-10-23v17l-1 42h-31l-1-2v-137l1-20z" fill="#150349"/>
<path transform="translate(442,323)" d="m0 0h29l3 8 19 74 18 71 1 7h-32l-6-25-1-1h-36l-5 22-2 4h-30l1-8 12-46 14-55 13-50z" fill="#150449"/>
<path transform="translate(304,279)" d="m0 0 9 3 11 7 3 4-4 10-1 9 9 8 6 7 10-2 5-2h7l9 15 2 7-4 5-10 7 1 8 5 15v2l17 4 3 2v23l-3 3-16 4-3 7-4 16 5 5 8 7 1 3-8 16-4 5-11-2-6-2h-5l-9 10-5 5 1 8 3 9-1 5-13 8-5 2-5-1-15-34 1-5 14-8 13-12 9-12 8-16 4-13 2-20-2-18-4-13-8-16-8-11-10-10-10-7-9-6-1-2 12-26 5-10z" fill="#150549"/>
<path transform="translate(256,351)" d="m0 0 16 2 14 7 9 9 7 12 3 10v17l-4 13-7 11-9 8-12 6-7 2h-18l-10-3-9-5-10-9-7-11-3-9-1-12 1-11 5-12 6-8 7-7 10-6 9-3z" fill="#150248"/>
<path transform="translate(522,323)" d="m0 0h28l1 1v159h-30l-1-5v-126l1-28z" fill="#150549"/>
<path transform="translate(76,318)" d="m0 0h146v3l-30 8-20 7-29 14-20 12-17 12-17 13-12 12-2-1v-79z" fill="#32C988"/>
<path transform="translate(75,402)" d="m0 0 4 2 15 13 19 14 17 11 21 12 24 11 19 7 24 6 3 2v2h-142l-3-1-1-35z" fill="#32C988"/>
<path transform="translate(599,356)" d="m0 0h12l6 2 4 4 2 4v13l-4 6-5 3-13 1-2-2z" fill="#FBFCFC"/>
<path transform="translate(712,375)" d="m0 0h2l5 25 4 17v3h-21l2-11 7-30z" fill="#FBFCFC"/>
<path transform="translate(455,376)" d="m0 0 2 1 9 39v4h-21l3-14z" fill="#FBFCFC"/>
</svg>
